<?xml version="1.0" encoding="iso-8859-1"?>
<!-- Generator: Adobe Illustrator 19.0.0, SVG Export Plug-In . SVG Version: 6.00 Build 0)  -->
<svg version="1.1" id="Layer_1" xmlns="http://www.w3.org/2000/svg" xmlns:xlink="http://www.w3.org/1999/xlink" x="0px" y="0px"
	 viewBox="0 0 512 512" style="enable-background:new 0 0 512 512;" xml:space="preserve">
<g transform="translate(1 1)">
	<path style="fill:#FFDD09;" d="M7.533,468.333V144.067h494.933v324.267c0,9.387-7.68,17.067-17.067,17.067H24.6
		C15.213,485.4,7.533,477.72,7.533,468.333"/>
	<path style="fill:#FCC309;" d="M7.533,144.067V75.8c0-9.387,7.68-17.067,17.067-17.067h460.8c9.387,0,17.067,7.68,17.067,17.067
		v68.267H7.533z"/>
	<path style="fill:#FD9808;" d="M485.4,58.733h-25.6c9.387,0,17.067,7.68,17.067,17.067v68.267v324.267
		c0,9.387-7.68,17.067-17.067,17.067h25.6c9.387,0,17.067-7.68,17.067-17.067V144.067V75.8
		C502.467,66.413,494.787,58.733,485.4,58.733"/>
	<path style="fill:#FFFFFF;" d="M24.6,58.733h25.6c-9.387,0-17.067,7.68-17.067,17.067v68.267v324.267
		c0,9.387,7.68,17.067,17.067,17.067H24.6c-9.387,0-17.067-7.68-17.067-17.067V144.067V75.8C7.533,66.413,15.213,58.733,24.6,58.733
		"/>
	<g>
		<polygon style="fill:#54C9FD;" points="75.8,246.467 127,246.467 127,195.267 75.8,195.267 		"/>
		<polygon style="fill:#54C9FD;" points="178.2,246.467 229.4,246.467 229.4,195.267 178.2,195.267 		"/>
		<polygon style="fill:#54C9FD;" points="280.6,246.467 331.8,246.467 331.8,195.267 280.6,195.267 		"/>
		<polygon style="fill:#54C9FD;" points="383,246.467 434.2,246.467 434.2,195.267 383,195.267 		"/>
		<polygon style="fill:#54C9FD;" points="75.8,340.333 127,340.333 127,289.133 75.8,289.133 		"/>
		<polygon style="fill:#54C9FD;" points="178.2,340.333 229.4,340.333 229.4,289.133 178.2,289.133 		"/>
		<polygon style="fill:#54C9FD;" points="75.8,434.2 127,434.2 127,383 75.8,383 		"/>
		<polygon style="fill:#54C9FD;" points="178.2,434.2 229.4,434.2 229.4,383 178.2,383 		"/>
	</g>
	<path style="fill:#1CD759;" d="M442.733,365.933c0-46.933-38.4-85.333-85.333-85.333s-85.333,38.4-85.333,85.333
		s38.4,85.333,85.333,85.333S442.733,412.867,442.733,365.933"/>
	<path style="fill:#15A143;" d="M357.4,280.6c-4.267,0-8.533,0.853-12.8,0.853c40.96,6.827,72.533,41.813,72.533,84.48
		s-31.573,78.507-72.533,84.48c4.267,0.853,8.533,0.853,12.8,0.853c46.933,0,85.333-38.4,85.333-85.333S404.333,280.6,357.4,280.6"
		/>
	<path d="M485.4,493.933H24.6c-14.507,0-25.6-11.093-25.6-25.6V144.067c0-5.12,3.413-8.533,8.533-8.533h494.933
		c5.12,0,8.533,3.413,8.533,8.533v324.267C511,482.84,499.907,493.933,485.4,493.933z M16.067,152.6v315.733
		c0,5.12,3.413,8.533,8.533,8.533h460.8c5.12,0,8.533-3.413,8.533-8.533V152.6H16.067z"/>
	<path d="M502.467,152.6H7.533c-5.12,0-8.533-3.413-8.533-8.533V75.8c0-14.507,11.093-25.6,25.6-25.6h460.8
		c14.507,0,25.6,11.093,25.6,25.6v68.267C511,149.187,507.587,152.6,502.467,152.6z M16.067,135.533h477.867V75.8
		c0-5.12-3.413-8.533-8.533-8.533H24.6c-5.12,0-8.533,3.413-8.533,8.533V135.533z"/>
	<path d="M442.733,101.4c-5.12,0-8.533-3.413-8.533-8.533s3.413-8.533,8.533-8.533c14.507,0,25.6-11.093,25.6-25.6
		s-11.093-25.6-25.6-25.6c-14.507,0-25.6,11.093-25.6,25.6c0,5.12-3.413,8.533-8.533,8.533c-5.12,0-8.533-3.413-8.533-8.533
		c0-23.893,18.773-42.667,42.667-42.667c23.893,0,42.667,18.773,42.667,42.667S466.627,101.4,442.733,101.4z"/>
	<path d="M348.867,101.4c-5.12,0-8.533-3.413-8.533-8.533s3.413-8.533,8.533-8.533c14.507,0,25.6-11.093,25.6-25.6
		s-11.093-25.6-25.6-25.6c-14.507,0-25.6,11.093-25.6,25.6c0,5.12-3.413,8.533-8.533,8.533c-5.12,0-8.533-3.413-8.533-8.533
		c0-23.893,18.773-42.667,42.667-42.667c23.893,0,42.667,18.773,42.667,42.667S372.76,101.4,348.867,101.4z"/>
	<path d="M255,101.4c-5.12,0-8.533-3.413-8.533-8.533s3.413-8.533,8.533-8.533c14.507,0,25.6-11.093,25.6-25.6
		s-11.093-25.6-25.6-25.6c-14.507,0-25.6,11.093-25.6,25.6c0,5.12-3.413,8.533-8.533,8.533c-5.12,0-8.533-3.413-8.533-8.533
		c0-23.893,18.773-42.667,42.667-42.667s42.667,18.773,42.667,42.667S278.893,101.4,255,101.4z"/>
	<path d="M161.133,101.4c-5.12,0-8.533-3.413-8.533-8.533s3.413-8.533,8.533-8.533c14.507,0,25.6-11.093,25.6-25.6
		s-11.093-25.6-25.6-25.6c-14.507,0-25.6,11.093-25.6,25.6c0,5.12-3.413,8.533-8.533,8.533s-8.533-3.413-8.533-8.533
		c0-23.893,18.773-42.667,42.667-42.667S203.8,34.84,203.8,58.733S185.027,101.4,161.133,101.4z"/>
	<path d="M67.267,101.4c-5.12,0-8.533-3.413-8.533-8.533s3.413-8.533,8.533-8.533c14.507,0,25.6-11.093,25.6-25.6
		s-11.093-25.6-25.6-25.6s-25.6,11.093-25.6,25.6c0,5.12-3.413,8.533-8.533,8.533S24.6,63.853,24.6,58.733
		c0-23.893,18.773-42.667,42.667-42.667s42.667,18.773,42.667,42.667S91.16,101.4,67.267,101.4z"/>
	<path d="M127,255H75.8c-5.12,0-8.533-3.413-8.533-8.533v-51.2c0-5.12,3.413-8.533,8.533-8.533H127c5.12,0,8.533,3.413,8.533,8.533
		v51.2C135.533,251.587,132.12,255,127,255z M84.333,237.933h34.133V203.8H84.333V237.933z"/>
	<path d="M229.4,255h-51.2c-5.12,0-8.533-3.413-8.533-8.533v-51.2c0-5.12,3.413-8.533,8.533-8.533h51.2
		c5.12,0,8.533,3.413,8.533,8.533v51.2C237.933,251.587,234.52,255,229.4,255z M186.733,237.933h34.133V203.8h-34.133V237.933z"/>
	<path d="M331.8,255h-51.2c-5.12,0-8.533-3.413-8.533-8.533v-51.2c0-5.12,3.413-8.533,8.533-8.533h51.2
		c5.12,0,8.533,3.413,8.533,8.533v51.2C340.333,251.587,336.92,255,331.8,255z M289.133,237.933h34.133V203.8h-34.133V237.933z"/>
	<path d="M434.2,255H383c-5.12,0-8.533-3.413-8.533-8.533v-51.2c0-5.12,3.413-8.533,8.533-8.533h51.2
		c5.12,0,8.533,3.413,8.533,8.533v51.2C442.733,251.587,439.32,255,434.2,255z M391.533,237.933h34.133V203.8h-34.133V237.933z"/>
	<path d="M127,348.867H75.8c-5.12,0-8.533-3.413-8.533-8.533v-51.2c0-5.12,3.413-8.533,8.533-8.533H127
		c5.12,0,8.533,3.413,8.533,8.533v51.2C135.533,345.453,132.12,348.867,127,348.867z M84.333,331.8h34.133v-34.133H84.333V331.8z"/>
	<path d="M229.4,348.867h-51.2c-5.12,0-8.533-3.413-8.533-8.533v-51.2c0-5.12,3.413-8.533,8.533-8.533h51.2
		c5.12,0,8.533,3.413,8.533,8.533v51.2C237.933,345.453,234.52,348.867,229.4,348.867z M186.733,331.8h34.133v-34.133h-34.133V331.8
		z"/>
	<path d="M127,442.733H75.8c-5.12,0-8.533-3.413-8.533-8.533V383c0-5.12,3.413-8.533,8.533-8.533H127
		c5.12,0,8.533,3.413,8.533,8.533v51.2C135.533,439.32,132.12,442.733,127,442.733z M84.333,425.667h34.133v-34.133H84.333V425.667z
		"/>
	<path d="M229.4,442.733h-51.2c-5.12,0-8.533-3.413-8.533-8.533V383c0-5.12,3.413-8.533,8.533-8.533h51.2
		c5.12,0,8.533,3.413,8.533,8.533v51.2C237.933,439.32,234.52,442.733,229.4,442.733z M186.733,425.667h34.133v-34.133h-34.133
		V425.667z"/>
	<path d="M357.4,459.8c-52.053,0-93.867-41.813-93.867-93.867s41.813-93.867,93.867-93.867s93.867,41.813,93.867,93.867
		S409.453,459.8,357.4,459.8z M357.4,289.133c-42.667,0-76.8,34.133-76.8,76.8s34.133,76.8,76.8,76.8s76.8-34.133,76.8-76.8
		S400.067,289.133,357.4,289.133z"/>
	<path d="M348.867,417.133c-2.56,0-4.267-0.853-5.973-2.56L308.76,380.44c-3.413-3.413-3.413-8.533,0-11.947s8.533-3.413,11.947,0
		l26.453,26.453l45.227-68.267c2.56-4.267,7.68-5.12,11.947-2.56c4.267,2.56,5.12,7.68,2.56,11.947l-51.2,76.8
		C354.84,415.427,352.28,417.133,348.867,417.133C349.72,417.133,348.867,417.133,348.867,417.133z"/>
</g>
<g>
</g>
<g>
</g>
<g>
</g>
<g>
</g>
<g>
</g>
<g>
</g>
<g>
</g>
<g>
</g>
<g>
</g>
<g>
</g>
<g>
</g>
<g>
</g>
<g>
</g>
<g>
</g>
<g>
</g>
</svg>
