<?xml version="1.0" encoding="iso-8859-1"?>
<!-- Generator: Adobe Illustrator 19.0.0, SVG Export Plug-In . SVG Version: 6.00 Build 0)  -->
<svg version="1.1" id="Layer_1" xmlns="http://www.w3.org/2000/svg" xmlns:xlink="http://www.w3.org/1999/xlink" x="0px" y="0px"
	 viewBox="0 0 512.042 512.042" style="enable-background:new 0 0 512.042 512.042;" xml:space="preserve">
<g>
	<g>
		<g>
			<path d="M117.351,234.667h106.667c11.782,0,21.333-9.551,21.333-21.333c0-11.782-9.551-21.333-21.333-21.333H117.351
				c-11.782,0-21.333,9.551-21.333,21.333C96.018,225.115,105.569,234.667,117.351,234.667z"/>
			<path d="M288.018,277.333H117.351c-11.782,0-21.333,9.551-21.333,21.333c0,11.782,9.551,21.333,21.333,21.333h170.667
				c11.782,0,21.333-9.551,21.333-21.333C309.351,286.885,299.8,277.333,288.018,277.333z"/>
			<path d="M442.222,0H176.472c-32.651,0-59.115,26.474-59.115,59.136v47.531H69.821c-32.667,0-59.136,26.469-59.136,59.136v324.864
				c0,20.166,25.394,29.074,37.992,13.327l78.928-98.66h207.944c32.667,0,59.136-26.469,59.136-59.136v-47.531h47.537
				c32.667,0,59.136-26.469,59.136-59.136V59.136C501.358,26.469,474.889,0,442.222,0z M352.018,346.197
				c0,9.103-7.366,16.469-16.469,16.469H117.351c-6.481,0-12.61,2.946-16.659,8.007L53.351,429.85V165.803
				c0-9.103,7.366-16.469,16.469-16.469h68.87h196.858c9.103,0,16.469,7.366,16.469,16.469V346.197z M458.691,239.531
				c0,9.103-7.366,16.469-16.469,16.469h-47.531v-90.197c0-32.667-26.469-59.136-59.136-59.136h-0.006H160.024V59.136
				c0-9.102,7.365-16.469,16.448-16.469h265.749c9.103,0,16.469,7.366,16.469,16.469V239.531z"/>
		</g>
	</g>
</g>
<g>
</g>
<g>
</g>
<g>
</g>
<g>
</g>
<g>
</g>
<g>
</g>
<g>
</g>
<g>
</g>
<g>
</g>
<g>
</g>
<g>
</g>
<g>
</g>
<g>
</g>
<g>
</g>
<g>
</g>
</svg>
