<?xml version="1.0" encoding="iso-8859-1"?>
<!-- Generator: Adobe Illustrator 19.0.0, SVG Export Plug-In . SVG Version: 6.00 Build 0)  -->
<svg version="1.1" id="Layer_1" xmlns="http://www.w3.org/2000/svg" xmlns:xlink="http://www.w3.org/1999/xlink" x="0px" y="0px"
	 viewBox="0 0 56 56" style="enable-background:new 0 0 56 56;" xml:space="preserve">
<g>
	<polygon style="fill:#66CEDB;" points="48,52.293 49,53.293 50,52.293 50,36 48,36 	"/>
	<rect x="48" y="18" style="fill:#66CEDB;" width="2" height="16"/>
	<path style="fill:#FFFFFF;" d="M38,8.708v40.816c1.161-0.414,2-1.514,2-2.816v-42C40,3.053,38.654,2,37,2H9
		C7.698,2,6.598,2,6.184,4H33C35.757,4,38,5.951,38,8.708z"/>
	<circle style="fill:#EE8B26;" cx="19" cy="12.708" r="3"/>
	<path style="fill:#F8CF26;" d="M36,9c0-1.657-1.343-3-3-3H5C3.343,6,2,7.343,2,9v42c0,1.657,1.343,3,3,3h28c1.657,0,3-1.343,3-3V9z
		 M32,48h-8v-2h8V48z M32,42H10v-2h22V42z M32,38H10v-2h22V38z M32,34H10v-2h22V34z M32,30H10v-2h22V30z M19,7.708
		c2.757,0,5,2.243,5,5s-2.243,5-5,5s-5-2.243-5-5S16.243,7.708,19,7.708z M6,20h26v2H6V20z M6,24h26v2H6V24z M6,27.708h2v2H6V27.708
		z M6,31.708h2v2H6V31.708z M6,35.708h2v2H6V35.708z M6,39.708h2v2H6V39.708z M6,46h8v2H6V46z"/>
	<g>
		<path d="M37,0H9C6.554,0,4.521,1.622,4.092,3.946C1.768,4.375,0,6.262,0,8.708v42C0,53.464,2.243,56,5,56h28
			c2.446,0,4.479-1.914,4.908-4.238C40.232,51.333,42,49.153,42,46.708v-42C42,1.951,39.757,0,37,0z M36,51c0,1.657-1.343,3-3,3H5
			c-1.657,0-3-1.343-3-3V9c0-1.657,1.343-3,3-3h28c1.657,0,3,1.343,3,3V51z M40,46.708c0,1.302-0.839,2.402-2,2.816V8.708
			C38,5.951,35.757,4,33,4H6.184C6.598,2,7.698,2,9,2h28c1.654,0,3,1.053,3,2.708V46.708z"/>
		<path d="M19,17.708c2.757,0,5-2.243,5-5s-2.243-5-5-5s-5,2.243-5,5S16.243,17.708,19,17.708z M19,9.708c1.654,0,3,1.346,3,3
			s-1.346,3-3,3s-3-1.346-3-3C16,11.053,17.346,9.708,19,9.708z"/>
		<rect x="6" y="20" width="26" height="2"/>
		<rect x="6" y="24" width="26" height="2"/>
		<rect x="10" y="28" width="22" height="2"/>
		<rect x="10" y="32" width="22" height="2"/>
		<rect x="10" y="36" width="22" height="2"/>
		<rect x="10" y="40" width="22" height="2"/>
		<rect x="6" y="46" width="8" height="2"/>
		<rect x="24" y="46" width="8" height="2"/>
		<rect x="6" y="27.708" width="2" height="2"/>
		<rect x="6" y="31.708" width="2" height="2"/>
		<rect x="6" y="35.708" width="2" height="2"/>
		<rect x="6" y="39.708" width="2" height="2"/>
		<path d="M56,28.708v-8C56,19.053,54.654,18,53,18h-1v-1.292C52,16.155,51.552,16,51,16h-4c-0.552,0-1,0.155-1,0.708v36
			c0,0.266,0.105,0.52,0.293,0.707l2,2c0.195,0.195,0.451,0.293,0.707,0.293s0.512-0.098,0.707-0.293l2-2
			C51.894,53.227,52,52.973,52,52.708V20h1c0.551,0,1,0.156,1,0.708v7.764l-0.895,1.789c-0.141,0.282-0.141,0.613,0,0.895L54,32.944
			V36h2v-3.292c0-0.155-0.036-0.309-0.106-0.447l-0.776-1.552l0.776-1.553C55.964,29.016,56,28.863,56,28.708z M50,18v16h-2V18H50z
			 M49,53.293l-1-1V36h2v16.293L49,53.293z"/>
	</g>
</g>
<g>
</g>
<g>
</g>
<g>
</g>
<g>
</g>
<g>
</g>
<g>
</g>
<g>
</g>
<g>
</g>
<g>
</g>
<g>
</g>
<g>
</g>
<g>
</g>
<g>
</g>
<g>
</g>
<g>
</g>
</svg>
