<?xml version="1.0" encoding="iso-8859-1"?>
<!-- Generator: Adobe Illustrator 19.0.0, SVG Export Plug-In . SVG Version: 6.00 Build 0)  -->
<svg version="1.1" id="Layer_1" xmlns="http://www.w3.org/2000/svg" xmlns:xlink="http://www.w3.org/1999/xlink" x="0px" y="0px"
	 viewBox="0 0 364.441 364.441" style="enable-background:new 0 0 364.441 364.441;" xml:space="preserve">
<g>
	<path style="fill:#C3C6C8;" d="M356.941,88.637c0-13.75-11.25-25-25-25H32.5c-13.75,0-25,11.25-25,25v187.168
		c0,13.75,11.25,25,25,25h299.441c13.75,0,25-11.25,25-25V88.637z"/>
	<path style="fill:#E8E8E8;" d="M182.221,156.933L7.5,268.704v7.1c0,13.75,11.25,25,25,25h299.441c13.75,0,25-11.25,25-25v-7.1
		L182.221,156.933z"/>
	<path style="fill:#E8E8E8;" d="M182.221,207.509l174.72-111.773v-7.1c0-13.75-11.25-25-25-25H32.5c-13.75,0-25,11.25-25,25v7.1
		L182.221,207.509z"/>
	<path style="fill:#005CB9;" d="M355.599,80.595L182.221,191.509L8.843,80.595C7.977,83.123,7.5,85.826,7.5,88.637v7.1
		l174.721,111.772l174.72-111.773v-7.1C356.941,85.826,356.465,83.123,355.599,80.595z"/>
	<path style="fill:#071C2C;" d="M331.941,56.137H32.5c-17.92,0-32.5,14.58-32.5,32.5v187.168c0,17.92,14.58,32.5,32.5,32.5h299.441
		c17.921,0,32.5-14.58,32.5-32.5V88.637C364.441,70.716,349.862,56.137,331.941,56.137z M15,109.438l113.773,72.783L15,255.004
		V109.438z M349.441,275.805c0,9.649-7.851,17.5-17.5,17.5H32.5c-9.649,0-17.5-7.851-17.5-17.5v-2.994l127.69-81.687l35.488,22.703
		c1.232,0.788,2.637,1.182,4.042,1.182s2.81-0.394,4.042-1.182l35.487-22.702l127.691,81.686v2.994H349.441z M349.441,255.003
		L235.668,182.22l113.773-72.783V255.003z M349.441,91.631l-167.22,106.974L15,91.631v-2.994c0-9.649,7.851-17.5,17.5-17.5h299.441
		c9.649,0,17.5,7.851,17.5,17.5V91.631z"/>
</g>
<g>
</g>
<g>
</g>
<g>
</g>
<g>
</g>
<g>
</g>
<g>
</g>
<g>
</g>
<g>
</g>
<g>
</g>
<g>
</g>
<g>
</g>
<g>
</g>
<g>
</g>
<g>
</g>
<g>
</g>
</svg>
