<?xml version="1.0" encoding="iso-8859-1"?>
<!-- Generator: Adobe Illustrator 19.0.0, SVG Export Plug-In . SVG Version: 6.00 Build 0)  -->
<svg version="1.1" id="Layer_1" xmlns="http://www.w3.org/2000/svg" xmlns:xlink="http://www.w3.org/1999/xlink" x="0px" y="0px"
	 viewBox="0 0 496 496" style="enable-background:new 0 0 496 496;" xml:space="preserve">
<path style="fill:#0EE0B8;" d="M404,0H92C78.4,0,64,12.8,64,26.4v320L222.4,496H404c13.6,0,28-12.8,28-26.4V26.4
	C432,12.8,417.6,0,404,0z"/>
<path style="fill:#5AC117;" d="M404,0H92C78.4,0,64,12.8,64,26.4v320L222.4,496H404c13.6,0,28-12.8,28-26.4V26.4
	C432,12.8,417.6,0,404,0z"/>
<path style="fill:#4DB20D;" d="M432,384V26.4C432,12.8,417.6,0,404,0H92C78.4,0,66.4,11.2,66.4,24"/>
<path style="fill:#44A307;" d="M432,384V26.4C432,12.8,417.6,0,404,0H208"/>
<path style="fill:#4DB20D;" d="M200,352v119.2c0,1.6,1.6,3.2,1.6,4.8l19.2,18.4c1.6,0,3.2,1.6,4.8,1.6h125.6l-148-144H200z"/>
<path style="fill:#44A307;" d="M200,351.2v120c0,1.6,1.6,3.2,1.6,4.8l19.2,18.4c1.6,0,3.2,1.6,4.8,1.6h64l-72.8-120.8L200,351.2z"/>
<path style="fill:#FFFFFF;" d="M222.4,496h1.6V370.4c0-13.6-12-26.4-25.6-26.4L64,345.6L222.4,496z"/>
<polyline style="fill:#D4F4E2;" points="64,345.6 222.4,496 224,496 224,368 "/>
<path style="fill:#6DE51F;" d="M80,345.6L80,345.6V26.4C80,12.8,89.6,0,102.4,0H92C78.4,0,64,12.8,64,26.4v320L80,345.6L80,345.6z"
	/>
<path style="fill:#44A307;" d="M225.6,292.8c-3.2,0-5.6-0.8-8-3.2l-48.8-48.8c-4.8-4.8-4.8-12,0-16c4.8-4.8,12-4.8,16,0l40.8,40.8
	l94.4-94.4c4.8-4.8,12-4.8,16,0c4.8,4.8,4.8,12,0,16L234.4,289.6C232,292,228.8,292.8,225.6,292.8z"/>
<path style="fill:#FFFFFF;" d="M220.8,280c-3.2,0-5.6-0.8-8-3.2L164,228c-4.8-4.8-4.8-12,0-16c4.8-4.8,12-4.8,16,0l40.8,40.8
	l94.4-94.4c4.8-4.8,12-4.8,16,0c4.8,4.8,4.8,12,0,16L229.6,276.8C227.2,279.2,224,280,220.8,280z"/>
<g>
</g>
<g>
</g>
<g>
</g>
<g>
</g>
<g>
</g>
<g>
</g>
<g>
</g>
<g>
</g>
<g>
</g>
<g>
</g>
<g>
</g>
<g>
</g>
<g>
</g>
<g>
</g>
<g>
</g>
</svg>
