<?xml version="1.0" encoding="iso-8859-1"?>
<!-- Generator: Adobe Illustrator 19.0.0, SVG Export Plug-In . SVG Version: 6.00 Build 0)  -->
<svg version="1.1" id="Layer_1" xmlns="http://www.w3.org/2000/svg" xmlns:xlink="http://www.w3.org/1999/xlink" x="0px" y="0px"
	 viewBox="0 0 512 512" style="enable-background:new 0 0 512 512;" xml:space="preserve">
<path style="fill:#B4BBCC;" d="M463.592,44.548H48.407c-22.097,0-40.011,17.913-40.011,40.011v342.883
	c0,22.097,17.913,40.011,40.011,40.011h415.185c22.097,0,40.011-17.913,40.011-40.011V84.558
	C503.604,62.461,485.69,44.548,463.592,44.548z"/>
<path style="fill:#A6E7FF;" d="M465.963,234.027V107.646c0-14.06-11.398-25.458-25.458-25.458H71.494
	c-14.06,0-25.458,11.398-25.458,25.458v232.141l48.362,44.018L465.963,234.027z"/>
<path style="fill:#FFFFFF;" d="M46.029,161.99c9.032-7.117,20.432-11.362,32.824-11.362c23.464,0,43.359,15.23,50.373,36.338
	c8.486-4.973,18.358-7.835,28.904-7.835c29.269,0,53.392,21.963,56.83,50.303c24.927,2.678,44.496,23.256,45.583,48.626
	l-61.879,60.487l-152.626,1.239L46.029,161.99z"/>
<path style="fill:#6C994E;" d="M161.193,308.769c0,0-66.479-25.056-115.157,31.018v64.567c0,14.06,11.398,25.458,25.458,25.458
	l101.224-76.577L161.193,308.769z"/>
<path style="opacity:0.1;enable-background:new    ;" d="M46.037,373.373c48.679-56.074,115.157-31.018,115.157-31.018l4.247,16.386
	l7.278-5.506l-11.525-44.466c0,0-66.479-25.056-115.157,31.018L46.037,373.373L46.037,373.373z"/>
<path style="fill:#7EB35B;" d="M71.494,429.812c33.779-89.67,139.695-195.445,227.837-135.727l-29.294,94.185l-74.548,41.542H71.494
	z"/>
<path style="opacity:0.1;enable-background:new    ;" d="M296.303,303.822l3.028-9.736
	c-88.143-59.718-194.058,46.057-227.837,135.727h32.167C140.743,354.844,221.656,279.107,296.303,303.822z"/>
<path style="fill:#A5EB78;" d="M465.963,404.354V234.027c-169.54-16.857-270.475,195.785-270.475,195.785h245.017
	C454.565,429.812,465.963,418.414,465.963,404.354z"/>
<path style="opacity:0.1;enable-background:new    ;" d="M465.963,255.501v-21.475c-169.54-16.857-270.475,195.785-270.475,195.785
	h34.482C259.69,378.697,342.958,257.64,465.963,255.501z"/>
<circle style="fill:#FFE97A;" cx="340.635" cy="176.648" r="35.936"/>
<path style="opacity:0.1;enable-background:new    ;" d="M315.904,187.844c0-19.845,16.087-35.932,35.932-35.932
	c7.055,0,13.63,2.042,19.182,5.555c-6.368-10.063-17.588-16.75-30.377-16.75c-19.845,0-35.932,16.087-35.932,35.932
	c0,12.789,6.687,24.009,16.75,30.377C317.946,201.475,315.904,194.9,315.904,187.844z"/>
<path d="M48.407,475.849h296.683c4.638,0,8.396-3.759,8.396-8.396s-3.758-8.396-8.396-8.396H48.407
	c-17.432,0-31.614-14.182-31.614-31.615V84.558c0-17.433,14.182-31.615,31.614-31.615h56.611c4.638,0,8.396-3.759,8.396-8.396
	s-3.758-8.396-8.396-8.396H48.407C21.715,36.151,0,57.867,0,84.558v342.883C0,454.133,21.715,475.849,48.407,475.849z"/>
<path d="M136.026,52.944h327.568c17.432,0,31.614,14.182,31.614,31.615v342.883c0,17.433-14.182,31.615-31.614,31.615h-84.919
	c-4.638,0-8.396,3.759-8.396,8.396s3.758,8.396,8.396,8.396h84.919c26.691,0,48.407-21.715,48.407-48.408V84.558
	c0-26.691-21.715-48.408-48.407-48.408H136.026c-4.638,0-8.396,3.759-8.396,8.396S131.387,52.944,136.026,52.944z"/>
<path d="M474.36,404.354v-170.35c0-0.004,0-0.009,0-0.013V107.646c0-18.668-15.186-33.854-33.853-33.854H71.494
	c-18.668,0-33.854,15.186-33.854,33.854v54.07c-0.003,0.113-0.001,0.225,0,0.338v242.3c0,18.629,15.124,33.788,33.738,33.852
	c0.038,0,0.077,0.006,0.116,0.006c0.01,0,0.019-0.002,0.029-0.002h123.925c0.012,0,0.025,0.002,0.036,0.002
	c0,0,0.018-0.002,0.027-0.002h244.996C459.172,438.208,474.36,423.022,474.36,404.354z M54.433,107.646
	c0-9.407,7.654-17.061,17.061-17.061h369.011c9.407,0,17.06,7.654,17.06,17.061v117.35c-15.437-0.819-30.873,0.12-46.017,2.858
	c-16.708,3.022-33.44,8.272-49.733,15.604c-14.707,6.617-29.385,15.082-43.627,25.158c-6.557,4.638-13.093,9.676-19.561,15.062
	c-9.688-5.821-19.853-9.989-30.359-12.504c-3.764-24.083-22.254-43.79-46.051-49.046c-6.573-29.706-33.082-51.391-64.09-51.391
	c-8.467,0-16.835,1.642-24.627,4.796c-10.411-20.244-31.339-33.299-54.648-33.299c-8.55,0-16.797,1.718-24.42,5.028v-39.615H54.433z
	 M54.433,166.28c7.25-4.757,15.615-7.254,24.42-7.254c19.284,0,36.325,12.292,42.405,30.59c0.798,2.404,2.639,4.318,5.011,5.21
	c2.369,0.891,5.017,0.667,7.203-0.613c7.462-4.373,15.988-6.684,24.657-6.684c24.677,0,45.526,18.451,48.494,42.918
	c0.47,3.878,3.554,6.92,7.439,7.337c17.43,1.873,31.739,14.426,36.464,30.746c-13.721-0.844-27.871,0.978-42.19,5.526
	c-16.911,5.371-33.281,14.218-48.647,25.42c-6.81-1.968-20.807-5.183-38.094-4.616c-18.445,0.606-43.672,5.774-67.161,25.052V166.28
	H54.433z M66.127,420.538c-6.784-2.257-11.694-8.653-11.694-16.184v-61.325c18.11-19.773,40.655-30.34,67.087-31.365
	c8.115-0.316,15.441,0.357,21.383,1.3C108.92,342.889,81.362,383.442,66.127,420.538z M233.714,366.075
	c-3.963-2.405-9.127-1.144-11.535,2.82c-3.482,5.736-7.27,11.558-10.933,17.188c-7.342,11.285-14.898,22.911-21.052,35.334H83.971
	c29.733-68.724,86.451-117.7,129.446-131.356c25.683-8.157,49.799-6.355,71.844,5.335c-1.611,1.487-3.216,2.99-4.814,4.518
	c-10.743,10.274-21.354,21.656-31.538,33.832c-1.16,1.387-2.312,2.78-3.456,4.18c-2.933,3.591-2.4,8.881,1.19,11.814
	c3.482,2.845,8.905,2.372,11.815-1.19c1.102-1.349,2.211-2.691,3.331-4.029c9.787-11.701,19.969-22.625,30.264-32.469
	c11.674-11.164,23.73-21.164,35.833-29.726c13.364-9.453,27.097-17.377,40.82-23.553c15.048-6.771,30.469-11.614,45.832-14.392
	c14.154-2.56,28.595-3.411,43.027-2.575v162.55c0,9.407-7.653,17.061-17.06,17.061H209.175c4.955-8.942,10.609-17.663,16.148-26.175
	c3.732-5.738,7.593-11.671,11.212-17.63C238.94,373.646,237.677,368.482,233.714,366.075z"/>
<path d="M340.64,220.977c24.442,0,44.328-19.886,44.328-44.328s-19.886-44.328-44.328-44.328c-24.442,0-44.328,19.886-44.328,44.328
	S316.198,220.977,340.64,220.977z M340.64,149.114c15.184,0,27.536,12.352,27.536,27.536c0,15.183-12.352,27.536-27.536,27.536
	c-15.184,0-27.536-12.353-27.536-27.536C313.106,161.465,325.457,149.114,340.64,149.114z"/>
<g>
</g>
<g>
</g>
<g>
</g>
<g>
</g>
<g>
</g>
<g>
</g>
<g>
</g>
<g>
</g>
<g>
</g>
<g>
</g>
<g>
</g>
<g>
</g>
<g>
</g>
<g>
</g>
<g>
</g>
</svg>
