<?xml version="1.0" encoding="iso-8859-1"?>
<!-- Generator: Adobe Illustrator 19.0.0, SVG Export Plug-In . SVG Version: 6.00 Build 0)  -->
<svg version="1.1" id="Layer_1" xmlns="http://www.w3.org/2000/svg" xmlns:xlink="http://www.w3.org/1999/xlink" x="0px" y="0px"
	 viewBox="0 0 512 512" style="enable-background:new 0 0 512 512;" xml:space="preserve">
<g>
	<path style="fill:#FFAB5F;" d="M117.718,464.881c0,21.462,17.399,38.861,38.861,38.861H355.42
		c21.462,0,38.861-17.399,38.861-38.861v-61.336l-138.282-22.022l-138.282,22.022L117.718,464.881L117.718,464.881z"/>
	<path style="fill:#FFAB5F;" d="M394.281,47.119c0-21.462-17.399-38.861-38.861-38.861H156.579
		c-21.462,0-38.861,17.399-38.861,38.861v61.337l138.282,22.021l138.282-22.021V47.119z"/>
</g>
<rect x="117.715" y="108.456" style="fill:#0A547B;" width="276.568" height="295.088"/>
<circle style="fill:#FFFFFF;" cx="255.999" cy="453.643" r="16.516"/>
<g>
	<path style="fill:#021729;" d="M355.42,0H156.579c-25.982,0-47.119,21.137-47.119,47.119v417.761
		c0,25.982,21.138,47.119,47.119,47.119H355.42c25.982,0,47.121-21.137,47.121-47.119V47.119C402.539,21.137,381.402,0,355.42,0z
		 M125.976,116.714h260.049v278.572H125.976V116.714z M156.579,16.516H355.42c16.875,0,30.604,13.729,30.604,30.603v53.078H125.976
		V47.119C125.976,30.245,139.704,16.516,156.579,16.516z M355.42,495.484H156.579c-16.875,0-30.603-13.729-30.603-30.603v-53.078
		h260.049v53.078C386.023,481.755,372.295,495.484,355.42,495.484z"/>
	<path style="fill:#021729;" d="M232.877,66.615h46.245c4.561,0,8.258-3.696,8.258-8.258s-3.697-8.258-8.258-8.258h-46.245
		c-4.561,0-8.258,3.696-8.258,8.258S228.316,66.615,232.877,66.615z"/>
	<path style="fill:#021729;" d="M255.999,428.869c-13.661,0-24.774,11.114-24.774,24.774c0,13.66,11.113,24.774,24.774,24.774
		c13.661,0,24.774-11.114,24.774-24.774C280.774,439.983,269.66,428.869,255.999,428.869z M255.999,461.901
		c-4.554,0-8.258-3.704-8.258-8.258c0-4.554,3.704-8.258,8.258-8.258c4.554,0,8.258,3.704,8.258,8.258
		C264.258,458.197,260.554,461.901,255.999,461.901z"/>
</g>
<g>
</g>
<g>
</g>
<g>
</g>
<g>
</g>
<g>
</g>
<g>
</g>
<g>
</g>
<g>
</g>
<g>
</g>
<g>
</g>
<g>
</g>
<g>
</g>
<g>
</g>
<g>
</g>
<g>
</g>
</svg>
