<?xml version="1.0" encoding="iso-8859-1"?>
<!-- Generator: Adobe Illustrator 19.0.0, SVG Export Plug-In . SVG Version: 6.00 Build 0)  -->
<svg version="1.1" id="Layer_1" xmlns="http://www.w3.org/2000/svg" xmlns:xlink="http://www.w3.org/1999/xlink" x="0px" y="0px"
	 viewBox="0 0 512 512" style="enable-background:new 0 0 512 512;" xml:space="preserve">
<path style="fill:#AFB6BB;" d="M424.907,29.031v453.938c0,11.612-9.501,21.113-21.113,21.113H108.206
	c-11.612,0-21.113-9.501-21.113-21.113V29.031c0-11.612,9.501-21.113,21.113-21.113h295.588
	C415.406,7.918,424.907,17.419,424.907,29.031z"/>
<path style="fill:#A3A9AE;" d="M106.272,7.918c-10.7,0.998-19.179,9.966-19.179,20.917v453.938c0,11.612,9.501,21.113,21.113,21.113
	h295.588c11.612,0,21.113-9.501,21.113-21.113v-54.031C253.153,358.743,127.678,199.221,106.272,7.918z"/>
<path d="M403.794,512H108.206c-16.007,0-29.031-13.023-29.031-29.031V29.031C79.175,13.023,92.199,0,108.206,0h295.588
	c16.007,0,29.031,13.023,29.031,29.031v453.938C432.825,498.977,419.801,512,403.794,512z M108.206,15.835
	c-7.277,0-13.196,5.919-13.196,13.196v453.938c0,7.277,5.919,13.196,13.196,13.196h295.588c7.277,0,13.196-5.919,13.196-13.196
	V29.031c0-7.277-5.919-13.196-13.196-13.196H108.206z"/>
<polygon style="fill:#C1C5C7;" points="314.062,98.388 285.242,126.575 291.998,166.268 256.317,147.477 220.635,166.268 
	227.497,126.575 198.572,98.388 238.476,92.582 256.317,56.478 274.158,92.582 "/>
<g>
	<polygon style="fill:#F9B81C;" points="314.062,246.182 285.242,274.369 291.998,314.062 256.317,295.271 220.635,314.062 
		227.497,274.369 198.572,246.182 238.476,240.376 256.317,204.272 274.158,240.376 	"/>
	<polygon style="fill:#F9B81C;" points="314.062,393.976 285.242,422.162 291.998,461.856 256.317,443.065 220.635,461.856 
		227.497,422.162 198.572,393.976 238.476,388.17 256.317,352.066 274.158,388.17 	"/>
</g>
<polygon style="fill:#E7ECED;" points="238.476,92.582 198.572,98.388 227.497,126.575 220.635,166.268 256,147.644 256,57.12 "/>
<g>
	<polygon style="fill:#FFD311;" points="238.476,240.376 198.572,246.182 227.497,274.369 220.635,314.062 256,295.438 256,204.914 
			"/>
	<polygon style="fill:#FFD311;" points="198.572,393.976 227.497,422.162 220.635,461.856 256,443.232 256,352.708 238.476,388.17 	
		"/>
</g>
<path d="M210.094,476.355l8.891-51.433l-37.429-36.471l51.666-7.517l23.095-46.74l23.097,46.74l51.626,7.512l-37.297,36.477
	l8.749,51.408l-46.176-24.316L210.094,476.355z M256.317,434.117l25.186,13.263l-4.762-27.978l20.343-19.895l-28.181-4.1
	l-12.586-25.468l-12.585,25.468l-28.145,4.095l20.423,19.9l-4.833,27.953L256.317,434.117z"/>
<path d="M210.094,328.561l8.891-51.433l-37.429-36.471l51.666-7.517l23.095-46.74l23.097,46.74l51.626,7.512l-37.297,36.477
	l8.749,51.408l-46.176-24.316L210.094,328.561z M256.317,286.323l25.186,13.263l-4.762-27.978l20.343-19.895l-28.181-4.1
	l-12.586-25.468l-12.585,25.468l-28.145,4.095l20.423,19.9l-4.833,27.953L256.317,286.323z"/>
<path d="M210.094,180.768l8.891-51.433l-37.429-36.471l51.666-7.517l23.095-46.74l23.097,46.74l51.626,7.512l-37.297,36.477
	l8.749,51.408l-46.176-24.316L210.094,180.768z M256.317,138.529l25.186,13.263l-4.762-27.978l20.343-19.895l-28.181-4.1
	l-12.586-25.468l-12.585,25.468l-28.145,4.095l20.423,19.9l-4.833,27.953L256.317,138.529z"/>
<g>
	<rect x="372.124" y="42.227" style="fill:#FFFFFF;" width="21.113" height="15.835"/>
	<rect x="118.763" y="42.227" style="fill:#FFFFFF;" width="21.113" height="15.835"/>
	<rect x="372.124" y="453.938" style="fill:#FFFFFF;" width="21.113" height="15.835"/>
	<rect x="118.763" y="453.938" style="fill:#FFFFFF;" width="21.113" height="15.835"/>
	<rect x="372.124" y="253.361" style="fill:#FFFFFF;" width="21.113" height="15.835"/>
	<rect x="118.763" y="253.361" style="fill:#FFFFFF;" width="21.113" height="15.835"/>
</g>
<g>
</g>
<g>
</g>
<g>
</g>
<g>
</g>
<g>
</g>
<g>
</g>
<g>
</g>
<g>
</g>
<g>
</g>
<g>
</g>
<g>
</g>
<g>
</g>
<g>
</g>
<g>
</g>
<g>
</g>
</svg>
