<?xml version="1.0" encoding="iso-8859-1"?>
<!-- Generator: Adobe Illustrator 19.0.0, SVG Export Plug-In . SVG Version: 6.00 Build 0)  -->
<svg version="1.1" id="Layer_1" xmlns="http://www.w3.org/2000/svg" xmlns:xlink="http://www.w3.org/1999/xlink" x="0px" y="0px"
	 viewBox="0 0 489.8 489.8" style="enable-background:new 0 0 489.8 489.8;" xml:space="preserve">
<g>
	<g>
		<polyline id="XMLID_606_" style="fill:#E64C3D;" points="260.2,286.5 268,459.3 244.3,480.7 221,459.6 228.5,286.5 		"/>
		<path style="fill:#2C2F33;" d="M66.4,404.2c5,0,9.1-4.1,9.1-9.1v-50.4c0-8,3.5-15.5,9.6-20.5c44.9-36.9,93.5-61.4,102.8-66
			c4.3-2.1,6.9-6.3,6.9-11.1v-70.9c0-3-1.5-5.9-4-7.5c-6.7-4.5-10.8-12-10.8-20V75.3c0-31.5,25.6-57.1,57.1-57.1h15.8
			c31.5,0,57.1,25.6,57.1,57.1v73.5c0,8.1-4,15.5-10.8,20c-2.5,1.7-4,4.5-4,7.5v70.9c0,4.8,2.7,9,6.9,11.1c9.3,4.5,58,29.1,102.8,66
			c6.1,5,9.6,12.5,9.6,20.5v50.4c0,5,4.1,9.1,9.1,9.1s9.1-4.1,9.1-9.1v-50.4c0-13.4-5.9-26-16.3-34.5
			c-42.5-34.9-88.3-59.2-103.1-66.6v-62.8c9.3-8,14.8-19.6,14.8-32.1V75.3c0-41.5-33.8-75.3-75.3-75.3H237
			c-41.5,0-75.3,33.8-75.3,75.3v73.5c0,12.4,5.5,24.1,14.8,32.1v62.8c-14.8,7.4-60.6,31.7-103.1,66.6c-10.3,8.5-16.3,21.1-16.3,34.5
			v50.4C57.4,400.1,61.4,404.2,66.4,404.2z"/>
		<path style="fill:#2C2F33;" d="M269.4,258.5c-5,0-9.1,4.1-9.1,9.1c0,4.5-1.9,8.5-5,11.3c-0.6,0.4-1.2,0.8-1.7,1.4
			c-2.4,1.7-5.4,2.6-8.6,2.6c-8.4,0-15.3-6.9-15.3-15.3c0-5-4.1-9.1-9.1-9.1s-9.1,4.1-9.1,9.1c0,8,2.9,15.4,7.6,21.2l-7.4,170.5
			c-0.1,2.7,1,5.3,3,7.1l23.3,21.1c1.7,1.6,3.9,2.3,6.1,2.3s4.4-0.8,6.1-2.3l23.7-21.4c2-1.8,3.1-4.4,3-7.1l-7.6-168.5
			c5.6-6,9.1-14,9.1-22.8C278.5,262.6,274.4,258.5,269.4,258.5z M244.3,468.5l-14.1-12.7l6.7-155.9c2.6,0.7,5.3,1,8.1,1
			c2.3,0,4.5-0.2,6.7-0.7l7,155.1L244.3,468.5z"/>
	</g>
</g>
<g>
</g>
<g>
</g>
<g>
</g>
<g>
</g>
<g>
</g>
<g>
</g>
<g>
</g>
<g>
</g>
<g>
</g>
<g>
</g>
<g>
</g>
<g>
</g>
<g>
</g>
<g>
</g>
<g>
</g>
</svg>
