<svg width="24px" height="24px" viewBox="0 0 24 24" xmlns="http://www.w3.org/2000/svg">
  <path fill-rule="evenodd" d="M11.593965,2.08736316 C11.8155418,1.98891464 12.0639725,1.97485056 12.2932219,2.04517094 L12.406035,2.08736316 L21.406035,6.08614246 C21.7680046,6.24696874 21.9974374,6.60402426 22.0000116,6.99295906 L21.9938837,7.11043153 L21.421479,12.2620742 C21.1288947,14.8953332 19.6919006,17.2604209 17.5024605,18.7341239 L17.2465158,18.9001752 L12.5299989,21.8479983 C12.2417587,22.0281485 11.8846299,22.0481651 11.5810811,21.9080484 L11.4700011,21.8479983 L6.75348416,18.9001752 C4.50674338,17.4959623 2.9973732,15.1763947 2.61733718,12.5646862 L2.57852101,12.2620742 L2.00611627,7.11043153 C1.96237547,6.71676437 2.15492555,6.3385415 2.48944458,6.14011287 L2.59396504,6.08614246 L11.593965,2.08736316 Z M12,4.09548316 L4.074684,7.61677088 L4.56628848,12.0412112 C4.79233189,14.0756019 5.89660391,15.904196 7.58032075,17.0519337 L7.81348204,17.2041786 L12,19.8207524 L16.186518,17.2041786 C17.9222943,16.1193184 19.0922069,14.3320083 19.3974719,12.3173079 L19.4337115,12.0412112 L19.925316,7.61677088 L12,4.09548316 Z M14.2136429,8.38221966 C14.5548556,7.94794959 15.1835091,7.87251128 15.6177798,8.21372347 C16.018645,8.52868858 16.1137597,9.0885733 15.8576477,9.51441088 L15.7862762,9.61785831 L11.7862996,14.6178079 C11.4423592,15.0555496 10.8149977,15.1228552 10.3877107,14.7908187 L10.2928777,14.7070928 L8.2928926,12.707118 C7.90236913,12.3165951 7.90236913,11.6834324 8.2928926,11.2929096 C8.65337579,10.9324269 9.22060564,10.9046975 9.61289601,11.2097213 L9.70710315,11.2929096 L10.9100574,12.4958547 L14.2136429,8.38221966 Z"/>
</svg>
