<?xml version="1.0" encoding="iso-8859-1"?>
<!-- Generator: Adobe Illustrator 19.0.0, SVG Export Plug-In . SVG Version: 6.00 Build 0)  -->
<svg version="1.1" id="Layer_1" xmlns="http://www.w3.org/2000/svg" xmlns:xlink="http://www.w3.org/1999/xlink" x="0px" y="0px"
	 viewBox="0 0 503.508 503.508" style="enable-background:new 0 0 503.508 503.508;" xml:space="preserve">
<g transform="translate(1 1)">
	<path style="fill:#AE938D;" d="M481.154,344.642v119.467c0,18.773-15.36,34.133-34.133,34.133h-409.6
		c-18.773,0-34.133-15.36-34.133-34.133V122.775c0-18.773,16.213-33.28,34.133-38.4l256-76.8c0,0,51.2-20.48,51.2,29.867v25.6v0.853
		l-307.2,58.88h392.533h17.067c18.773,0,34.133,15.36,34.133,34.133v119.467h-179.2c-5.12,0-8.533,4.267-8.533,8.533v51.2
		c0,5.12,3.413,8.533,8.533,8.533H481.154z"/>
	<path style="fill:#ECF4F7;" d="M498.221,284.908v51.2c0,5.12-3.413,8.533-8.533,8.533h-8.533h-179.2
		c-5.12,0-8.533-3.413-8.533-8.533v-51.2c0-4.267,3.413-8.533,8.533-8.533h179.2h8.533
		C494.808,276.375,498.221,279.788,498.221,284.908"/>
	<circle style="fill:#FF7474;" cx="327.554" cy="310.508" r="8.533"/>
	<path style="fill:#50DD8E;" d="M429.954,88.642v34.133H37.421l307.2-58.88l51.2-9.387
		C395.821,54.508,429.954,46.829,429.954,88.642"/>
</g>
<path style="fill:#51565F;" d="M448.021,503.508h-409.6c-21.333,0-38.4-17.067-38.4-38.4V123.775
	c0-22.187,18.773-37.547,37.547-42.667l256-76.8c0.853,0,26.453-10.24,42.667,0.853c9.387,5.973,13.653,17.067,13.653,33.28
	c0,2.56-1.707,4.267-4.267,4.267s-4.267-1.707-4.267-4.267c0-12.8-3.413-21.333-10.24-25.6c-12.8-8.533-34.987,0-34.987,0l-256,76.8
	c-15.36,4.267-30.72,16.213-30.72,34.133v341.333c0,16.213,13.653,29.867,29.867,29.867h409.6c16.213,0,29.867-13.653,29.867-29.867
	v-85.333c0-2.56,1.707-4.267,4.267-4.267c2.56,0,4.267,1.707,4.267,4.267v85.333C486.421,486.442,469.354,503.508,448.021,503.508z
	 M430.954,469.375h-17.067c-2.56,0-4.267-1.707-4.267-4.267s1.707-4.267,4.267-4.267h17.067c2.56,0,4.267,1.707,4.267,4.267
	S433.514,469.375,430.954,469.375z M379.754,469.375h-17.067c-2.56,0-4.267-1.707-4.267-4.267s1.707-4.267,4.267-4.267h17.067
	c2.56,0,4.267,1.707,4.267,4.267S382.314,469.375,379.754,469.375z M328.554,469.375h-17.067c-2.56,0-4.267-1.707-4.267-4.267
	s1.707-4.267,4.267-4.267h17.067c2.56,0,4.267,1.707,4.267,4.267S331.114,469.375,328.554,469.375z M277.354,469.375h-17.067
	c-2.56,0-4.267-1.707-4.267-4.267s1.707-4.267,4.267-4.267h17.067c2.56,0,4.267,1.707,4.267,4.267S279.914,469.375,277.354,469.375z
	 M226.154,469.375h-17.067c-2.56,0-4.267-1.707-4.267-4.267s1.707-4.267,4.267-4.267h17.067c2.56,0,4.267,1.707,4.267,4.267
	S228.714,469.375,226.154,469.375z M174.954,469.375h-17.067c-2.56,0-4.267-1.707-4.267-4.267s1.707-4.267,4.267-4.267h17.067
	c2.56,0,4.267,1.707,4.267,4.267S177.514,469.375,174.954,469.375z M123.754,469.375h-17.067c-2.56,0-4.267-1.707-4.267-4.267
	s1.707-4.267,4.267-4.267h17.067c2.56,0,4.267,1.707,4.267,4.267S126.314,469.375,123.754,469.375z M72.554,469.375H55.488
	c-2.56,0-4.267-1.707-4.267-4.267s1.707-4.267,4.267-4.267h17.067c2.56,0,4.267,1.707,4.267,4.267S75.114,469.375,72.554,469.375z
	 M490.688,349.908H302.954c-6.827,0-12.8-5.973-12.8-12.8v-51.2c0-6.827,5.973-12.8,12.8-12.8h174.933v-115.2
	c0-16.213-13.653-29.867-29.867-29.867h-409.6c-2.56,0-4.267-1.707-4.267-4.267c0-2.56,1.707-4.267,3.413-4.267l358.4-68.267
	c0.853,0,15.36-3.413,27.307,5.973c8.533,6.827,11.947,17.067,11.947,32.427c0,2.56-1.707,4.267-4.267,4.267
	s-4.267-1.707-4.267-4.267c0-11.947-3.413-20.48-9.387-25.6c-8.533-6.827-19.627-4.267-19.627-4.267L83.648,119.508h364.373
	c21.333,0,38.4,17.067,38.4,38.4v115.2h4.267c6.827,0,12.8,5.973,12.8,12.8v51.2C503.488,343.935,497.514,349.908,490.688,349.908z
	 M302.954,281.642c-2.56,0-4.267,1.707-4.267,4.267v51.2c0,2.56,1.707,4.267,4.267,4.267h187.733c2.56,0,4.267-1.707,4.267-4.267
	v-51.2c0-2.56-1.707-4.267-4.267-4.267H302.954z M328.554,324.308c-6.827,0-12.8-5.973-12.8-12.8s5.973-12.8,12.8-12.8
	s12.8,5.973,12.8,12.8S335.381,324.308,328.554,324.308z M328.554,307.242c-2.56,0-4.267,1.707-4.267,4.267
	c0,2.56,1.707,4.267,4.267,4.267s4.267-1.707,4.267-4.267C332.821,308.949,331.114,307.242,328.554,307.242z M430.954,162.175
	h-17.067c-2.56,0-4.267-1.707-4.267-4.267c0-2.56,1.707-4.267,4.267-4.267h17.067c2.56,0,4.267,1.707,4.267,4.267
	C435.221,160.468,433.514,162.175,430.954,162.175z M379.754,162.175h-17.067c-2.56,0-4.267-1.707-4.267-4.267
	c0-2.56,1.707-4.267,4.267-4.267h17.067c2.56,0,4.267,1.707,4.267,4.267C384.021,160.468,382.314,162.175,379.754,162.175z
	 M328.554,162.175h-17.067c-2.56,0-4.267-1.707-4.267-4.267c0-2.56,1.707-4.267,4.267-4.267h17.067c2.56,0,4.267,1.707,4.267,4.267
	C332.821,160.468,331.114,162.175,328.554,162.175z M277.354,162.175h-17.067c-2.56,0-4.267-1.707-4.267-4.267
	c0-2.56,1.707-4.267,4.267-4.267h17.067c2.56,0,4.267,1.707,4.267,4.267C281.621,160.468,279.914,162.175,277.354,162.175z
	 M226.154,162.175h-17.067c-2.56,0-4.267-1.707-4.267-4.267c0-2.56,1.707-4.267,4.267-4.267h17.067c2.56,0,4.267,1.707,4.267,4.267
	C230.421,160.468,228.714,162.175,226.154,162.175z M174.954,162.175h-17.067c-2.56,0-4.267-1.707-4.267-4.267
	c0-2.56,1.707-4.267,4.267-4.267h17.067c2.56,0,4.267,1.707,4.267,4.267C179.221,160.468,177.514,162.175,174.954,162.175z
	 M123.754,162.175h-17.067c-2.56,0-4.267-1.707-4.267-4.267c0-2.56,1.707-4.267,4.267-4.267h17.067c2.56,0,4.267,1.707,4.267,4.267
	C128.021,160.468,126.314,162.175,123.754,162.175z M72.554,162.175H55.488c-2.56,0-4.267-1.707-4.267-4.267
	c0-2.56,1.707-4.267,4.267-4.267h17.067c2.56,0,4.267,1.707,4.267,4.267C76.821,160.468,75.114,162.175,72.554,162.175z"/>
<g>
</g>
<g>
</g>
<g>
</g>
<g>
</g>
<g>
</g>
<g>
</g>
<g>
</g>
<g>
</g>
<g>
</g>
<g>
</g>
<g>
</g>
<g>
</g>
<g>
</g>
<g>
</g>
<g>
</g>
</svg>
